# Blender v2.83.5 OBJ File: 'cube.blend'
# www.blender.org
o Cube.001
v -1.000000 -1.000000 1.000000
v -1.000000 1.000000 1.000000
v -1.000000 -1.000000 -1.000000
v -1.000000 1.000000 -1.000000
v 1.000000 -1.000000 1.000000
v 1.000000 1.000000 1.000000
v 1.000000 -1.000000 -1.000000
v 1.000000 1.000000 -1.000000
vt 0.482422 0.056641
vt 0.003906 0.304688
vt 0.003906 0.054688
vt 0.892578 0.398438
vt 0.517578 0.648438
vt 0.517578 0.398438
vt 0.539062 0.724609
vt 0.230469 0.982422
vt 0.230469 0.724609
vt 0.220703 0.750000
vt -0.003906 0.996094
vt -0.003906 0.746094
vt 0.458984 0.324219
vt 0.009766 0.673828
vt 0.011719 0.320312
vt 0.966797 0.087891
vt 0.541016 0.337891
vt 0.541016 0.091797
vt 0.482422 0.306641
vt 0.892578 0.652344
vt 0.539062 0.978516
vt 0.220703 1.000000
vt 0.457031 0.677734
vt 0.966797 0.337891
vn -1.0000 0.0000 0.0000
vn 0.0000 0.0000 -1.0000
vn 1.0000 0.0000 0.0000
vn 0.0000 0.0000 1.0000
vn 0.0000 -1.0000 0.0000
vn 0.0000 1.0000 0.0000
s off
f 2/1/1 3/2/1 1/3/1
f 4/4/2 7/5/2 3/6/2
f 8/7/3 5/8/3 7/9/3
f 6/10/4 1/11/4 5/12/4
f 7/13/5 1/14/5 3/15/5
f 4/16/6 6/17/6 8/18/6
f 2/1/1 4/19/1 3/2/1
f 4/4/2 8/20/2 7/5/2
f 8/7/3 6/21/3 5/8/3
f 6/10/4 2/22/4 1/11/4
f 7/13/5 5/23/5 1/14/5
f 4/16/6 2/24/6 6/17/6
